<mxfile host="app.diagrams.net" modified="2023-04-11T11:44:09.814Z" agent="5.0 (Windows NT 10.0; Win64; x64) AppleWebKit/537.36 (KHTML, like Gecko) Chrome/112.0.0.0 Safari/537.36 Edg/112.0.1722.34" etag="8dO0bW9s1ZqoNm2dK-DH" version="20.8.19" type="github">
  <diagram name="第 1 页" id="ZGrsLild34XGjyzpiQED">
    <mxGraphModel dx="977" dy="1708" grid="1" gridSize="10" guides="1" tooltips="1" connect="1" arrows="1" fold="1" page="1" pageScale="1" pageWidth="827" pageHeight="1169" math="0" shadow="0">
      <root>
        <mxCell id="0" />
        <mxCell id="1" parent="0" />
        <mxCell id="dsp0Wt7UqSHANniwiMfy-16" style="edgeStyle=orthogonalEdgeStyle;rounded=0;orthogonalLoop=1;jettySize=auto;html=1;entryX=0.5;entryY=0.5;entryDx=0;entryDy=0;entryPerimeter=0;labelBackgroundColor=none;fontColor=default;strokeColor=#457B9D;fontSize=12;" parent="1" source="dsp0Wt7UqSHANniwiMfy-1" target="dsp0Wt7UqSHANniwiMfy-6" edge="1">
          <mxGeometry relative="1" as="geometry">
            <Array as="points">
              <mxPoint x="750" y="50" />
            </Array>
          </mxGeometry>
        </mxCell>
        <mxCell id="dsp0Wt7UqSHANniwiMfy-1" value="Begin" style="rounded=0;whiteSpace=wrap;html=1;labelBackgroundColor=none;fillColor=#A8DADC;strokeColor=#457B9D;fontColor=#1D3557;fontSize=12;" parent="1" vertex="1">
          <mxGeometry x="690" y="190" width="120" height="60" as="geometry" />
        </mxCell>
        <mxCell id="dsp0Wt7UqSHANniwiMfy-19" style="edgeStyle=orthogonalEdgeStyle;rounded=0;orthogonalLoop=1;jettySize=auto;html=1;entryX=0.875;entryY=0.5;entryDx=0;entryDy=0;entryPerimeter=0;labelBackgroundColor=none;fontColor=default;strokeColor=#457B9D;exitX=0;exitY=0.5;exitDx=0;exitDy=0;fontSize=12;" parent="1" source="dsp0Wt7UqSHANniwiMfy-2" target="dsp0Wt7UqSHANniwiMfy-13" edge="1">
          <mxGeometry relative="1" as="geometry">
            <Array as="points">
              <mxPoint x="530" y="-70" />
            </Array>
          </mxGeometry>
        </mxCell>
        <mxCell id="dsp0Wt7UqSHANniwiMfy-2" value="使用 @ServiceExpose注释暴露接口服务，使用在具体的 ServiceImpl 类上" style="rounded=0;whiteSpace=wrap;html=1;labelBackgroundColor=none;fillColor=#A8DADC;strokeColor=#457B9D;fontColor=#1D3557;fontSize=12;" parent="1" vertex="1">
          <mxGeometry x="530" y="-100" width="135" height="60" as="geometry" />
        </mxCell>
        <mxCell id="dsp0Wt7UqSHANniwiMfy-3" value="End" style="rounded=0;whiteSpace=wrap;html=1;labelBackgroundColor=none;fillColor=#A8DADC;strokeColor=#457B9D;fontColor=#1D3557;fontSize=12;" parent="1" vertex="1">
          <mxGeometry x="20" y="180" width="120" height="60" as="geometry" />
        </mxCell>
        <mxCell id="dsp0Wt7UqSHANniwiMfy-27" style="edgeStyle=orthogonalEdgeStyle;rounded=0;orthogonalLoop=1;jettySize=auto;html=1;labelBackgroundColor=none;fontColor=default;strokeColor=#457B9D;fontSize=12;" parent="1" source="dsp0Wt7UqSHANniwiMfy-5" target="dsp0Wt7UqSHANniwiMfy-3" edge="1">
          <mxGeometry relative="1" as="geometry" />
        </mxCell>
        <mxCell id="IskhmwTk7xbrIrd08O6c-3" style="edgeStyle=orthogonalEdgeStyle;rounded=0;sketch=0;hachureGap=4;jiggle=2;curveFitting=1;orthogonalLoop=1;jettySize=auto;html=1;entryX=0;entryY=0.5;entryDx=0;entryDy=0;fontFamily=Architects Daughter;fontSource=https%3A%2F%2Ffonts.googleapis.com%2Fcss%3Ffamily%3DArchitects%2BDaughter;fontSize=12;labelBackgroundColor=none;strokeColor=#457B9D;fontColor=default;" edge="1" parent="1" source="dsp0Wt7UqSHANniwiMfy-5" target="dsp0Wt7UqSHANniwiMfy-28">
          <mxGeometry relative="1" as="geometry" />
        </mxCell>
        <mxCell id="IskhmwTk7xbrIrd08O6c-5" value="发起调用" style="edgeLabel;html=1;align=center;verticalAlign=middle;resizable=0;points=[];fontSize=12;fontFamily=Architects Daughter;labelBackgroundColor=none;fontColor=#1D3557;" vertex="1" connectable="0" parent="IskhmwTk7xbrIrd08O6c-3">
          <mxGeometry x="0.1273" y="9" relative="1" as="geometry">
            <mxPoint x="-10" y="-11" as="offset" />
          </mxGeometry>
        </mxCell>
        <mxCell id="dsp0Wt7UqSHANniwiMfy-5" value="Consumer" style="shape=umlActor;verticalLabelPosition=bottom;verticalAlign=top;html=1;labelBackgroundColor=none;rounded=0;fillColor=#A8DADC;strokeColor=#457B9D;fontColor=#1D3557;fontSize=12;" parent="1" vertex="1">
          <mxGeometry x="172.5" y="20" width="30" height="60" as="geometry" />
        </mxCell>
        <mxCell id="IskhmwTk7xbrIrd08O6c-2" style="edgeStyle=orthogonalEdgeStyle;rounded=0;hachureGap=4;orthogonalLoop=1;jettySize=auto;html=1;entryX=0.5;entryY=1;entryDx=0;entryDy=0;fontFamily=Architects Daughter;fontSource=https%3A%2F%2Ffonts.googleapis.com%2Fcss%3Ffamily%3DArchitects%2BDaughter;fontSize=12;labelBackgroundColor=none;strokeColor=#457B9D;fontColor=default;" edge="1" parent="1" source="dsp0Wt7UqSHANniwiMfy-6" target="dsp0Wt7UqSHANniwiMfy-2">
          <mxGeometry relative="1" as="geometry" />
        </mxCell>
        <mxCell id="IskhmwTk7xbrIrd08O6c-4" style="edgeStyle=orthogonalEdgeStyle;rounded=0;sketch=0;hachureGap=4;jiggle=2;curveFitting=1;orthogonalLoop=1;jettySize=auto;html=1;entryX=1;entryY=0.5;entryDx=0;entryDy=0;fontFamily=Architects Daughter;fontSource=https%3A%2F%2Ffonts.googleapis.com%2Fcss%3Ffamily%3DArchitects%2BDaughter;fontSize=12;labelBackgroundColor=none;strokeColor=#457B9D;fontColor=default;" edge="1" parent="1" source="dsp0Wt7UqSHANniwiMfy-6" target="dsp0Wt7UqSHANniwiMfy-28">
          <mxGeometry relative="1" as="geometry" />
        </mxCell>
        <mxCell id="dsp0Wt7UqSHANniwiMfy-6" value="Provider" style="shape=umlActor;verticalLabelPosition=bottom;verticalAlign=top;html=1;labelBackgroundColor=none;rounded=0;fillColor=#A8DADC;strokeColor=#457B9D;fontColor=#1D3557;fontSize=12;" parent="1" vertex="1">
          <mxGeometry x="582.5" y="20" width="30" height="60" as="geometry" />
        </mxCell>
        <mxCell id="dsp0Wt7UqSHANniwiMfy-26" style="edgeStyle=orthogonalEdgeStyle;rounded=0;orthogonalLoop=1;jettySize=auto;html=1;entryX=1;entryY=0.5;entryDx=0;entryDy=0;labelBackgroundColor=none;fontColor=default;strokeColor=#457B9D;fontSize=12;" parent="1" source="dsp0Wt7UqSHANniwiMfy-13" target="dsp0Wt7UqSHANniwiMfy-22" edge="1">
          <mxGeometry relative="1" as="geometry" />
        </mxCell>
        <mxCell id="dsp0Wt7UqSHANniwiMfy-13" value="" style="ellipse;shape=cloud;whiteSpace=wrap;html=1;labelBackgroundColor=none;rounded=0;fillColor=#A8DADC;strokeColor=#457B9D;fontColor=#1D3557;fontSize=12;" parent="1" vertex="1">
          <mxGeometry x="340" y="-110" width="120" height="80" as="geometry" />
        </mxCell>
        <mxCell id="dsp0Wt7UqSHANniwiMfy-14" value="Registry" style="text;html=1;align=center;verticalAlign=middle;resizable=0;points=[];autosize=1;strokeColor=none;fillColor=none;labelBackgroundColor=none;rounded=0;fontColor=#1D3557;fontSize=12;" parent="1" vertex="1">
          <mxGeometry x="365" y="-85" width="70" height="30" as="geometry" />
        </mxCell>
        <mxCell id="dsp0Wt7UqSHANniwiMfy-29" style="edgeStyle=orthogonalEdgeStyle;rounded=0;orthogonalLoop=1;jettySize=auto;html=1;labelBackgroundColor=none;fontColor=default;strokeColor=#457B9D;fontSize=12;" parent="1" source="dsp0Wt7UqSHANniwiMfy-22" target="dsp0Wt7UqSHANniwiMfy-5" edge="1">
          <mxGeometry relative="1" as="geometry" />
        </mxCell>
        <mxCell id="dsp0Wt7UqSHANniwiMfy-22" value="使用 @ServiceRerence注释引用暴露的接口服务，使用反射获取原接口方法信息，进行invoke" style="rounded=0;whiteSpace=wrap;html=1;labelBackgroundColor=none;fillColor=#A8DADC;strokeColor=#457B9D;fontColor=#1D3557;fontSize=12;" parent="1" vertex="1">
          <mxGeometry x="120" y="-100" width="135" height="60" as="geometry" />
        </mxCell>
        <mxCell id="dsp0Wt7UqSHANniwiMfy-28" value="传输使用配置的 Serialization 方式进行，目前支持 Java、JSON" style="shape=process;whiteSpace=wrap;html=1;backgroundOutline=1;labelBackgroundColor=none;rounded=0;fillColor=#A8DADC;strokeColor=#457B9D;fontColor=#1D3557;fontSize=12;" parent="1" vertex="1">
          <mxGeometry x="340" y="15" width="120" height="70" as="geometry" />
        </mxCell>
        <mxCell id="IskhmwTk7xbrIrd08O6c-8" value="响应调用" style="text;html=1;align=center;verticalAlign=middle;resizable=0;points=[];autosize=1;strokeColor=none;fillColor=none;fontSize=12;fontFamily=Architects Daughter;labelBackgroundColor=none;fontColor=#1D3557;" vertex="1" parent="1">
          <mxGeometry x="485" y="15" width="70" height="30" as="geometry" />
        </mxCell>
      </root>
    </mxGraphModel>
  </diagram>
</mxfile>
